<svg xmlns="http://www.w3.org/2000/svg" xmlns:xlink="http://www.w3.org/1999/xlink" width="428" height="926" viewBox="0 0 428 926">
  <defs>
    <clipPath id="clip-path">
      <rect id="Rectangle_605" data-name="Rectangle 605" width="428" height="926" fill="none" stroke="#707070" stroke-width="1"/>
    </clipPath>
    <linearGradient id="linear-gradient" x1="1" y1="0.6" x2="0" y2="0.153" gradientUnits="objectBoundingBox">
      <stop offset="0" stop-color="#0038ff" stop-opacity="0.502"/>
      <stop offset="1" stop-color="#13b287" stop-opacity="0.502"/>
    </linearGradient>
    <linearGradient id="linear-gradient-2" x1="1.808" x2="-0.364" y2="-0.411" gradientUnits="objectBoundingBox">
      <stop offset="0" stop-color="#024a05"/>
      <stop offset="1" stop-color="#02180e"/>
    </linearGradient>
    <linearGradient id="linear-gradient-3" x1="1.808" x2="-0.364" y2="-0.411" gradientUnits="objectBoundingBox">
      <stop offset="0" stop-color="#fff"/>
      <stop offset="1" stop-color="#02180e"/>
    </linearGradient>
  </defs>
  <g id="Mask_Group_1" data-name="Mask Group 1" clip-path="url(#clip-path)">
    <path id="Path_1424" data-name="Path 1424" d="M83,0c45.84,0,83,35.4,83,79.074s-37.16,79.074-83,79.074S0,122.746,0,79.074,37.16,0,83,0Z" transform="translate(345 422.926)" opacity="0.91" fill="url(#linear-gradient)"/>
    <path id="Path_1425" data-name="Path 1425" d="M100,0c55.228,0,100,42.654,100,95.27s-44.772,95.27-100,95.27S0,147.887,0,95.27,44.772,0,100,0Z" transform="translate(-82.5 50)" fill="rgba(103,104,104,0.5)" opacity="0.76"/>
    <path id="Path_1426" data-name="Path 1426" d="M113.605,0c62.743,0,113.605,51.752,113.605,115.591S176.348,231.183,113.605,231.183,0,179.431,0,115.591,50.863,0,113.605,0Z" transform="translate(299 -97)" fill="url(#linear-gradient-2)"/>
    <path id="Path_1431" data-name="Path 1431" d="M113.605,0c62.743,0,113.605,51.752,113.605,115.591S176.348,231.183,113.605,231.183,0,179.431,0,115.591,50.863,0,113.605,0Z" transform="translate(-141.211 852)" opacity="0.52" fill="url(#linear-gradient-3)"/>
  </g>
</svg>
