<svg id="Component_3_1" data-name="Component 3 – 1" xmlns="http://www.w3.org/2000/svg" width="27.3" height="27.05" viewBox="0 0 27.3 27.05">
  <path id="crop_FILL0_wght400_GRAD0_opsz48" d="M22.32,29.05V23.978H8.98a1.794,1.794,0,0,1-1.3-.553,1.762,1.762,0,0,1-.558-1.291V8.916H2V7.072H7.119V2H8.98V22.134H29.3v1.844H24.181V29.05Zm0-8.761V8.916H10.841V7.072H22.32a1.794,1.794,0,0,1,1.3.553,1.762,1.762,0,0,1,.558,1.291V20.289Z" transform="translate(-2 -2)" fill="#fff"/>
  <path id="edit_FILL0_wght400_GRAD0_opsz48" d="M7.965,27.385H9.405l14.5-14.5L22.469,11.44l-14.5,14.5Zm20.1-15.913L23.877,7.282l1.375-1.375a1.977,1.977,0,0,1,2.75,0l1.441,1.441A1.868,1.868,0,0,1,30,8.722a1.868,1.868,0,0,1-.557,1.375Zm-1.375,1.375-16.5,16.5H6V25.159l16.5-16.5Zm-3.5-.688-.72-.72,1.441,1.441Z" transform="translate(-4.35 -4.825)" fill="#fff"/>
</svg>
