<svg xmlns="http://www.w3.org/2000/svg" width="24" height="24" viewBox="0 0 24 24">
  <path id="campaign_FILL0_wght400_GRAD0_opsz48" d="M23.5,21.125v-2.25H28v2.25ZM25,32l-3.63-3.375,1.08-1.8L26.08,30.2ZM22.54,13.137l-1.08-1.8L25,8l1.08,1.8ZM7.9,30.5v-6H5.8a1.582,1.582,0,0,1-1.275-.656A2.471,2.471,0,0,1,4,22.25v-4.5a2.471,2.471,0,0,1,.525-1.594A1.582,1.582,0,0,1,5.8,15.5h5.4l6-4.5V29l-6-4.5H9.7v6Zm10.5-5.475V14.975a6.953,6.953,0,0,1,1.3,2.194,8.344,8.344,0,0,1,0,5.663A6.952,6.952,0,0,1,18.4,25.025ZM5.8,17.75v4.5h5.88l3.72,2.775V14.975L11.68,17.75ZM10.6,20Z" transform="translate(-4 -8)" fill="#fff"/>
</svg>
