<svg xmlns="http://www.w3.org/2000/svg" width="24" height="24" viewBox="0 0 24 24">
  <path id="pending-icon" d="M13.375,22.1a.91.91,0,1,1,.241,1.8,12.707,12.707,0,0,1-2.429.072A12.071,12.071,0,0,1,3.516,20.55a11.614,11.614,0,0,1,0-16.651A12.086,12.086,0,0,1,12,.45a12.231,12.231,0,0,1,3.337.465,12.04,12.04,0,0,1,2.515,1.03l-.237-.608A.981.981,0,0,1,18.2.064a1.012,1.012,0,0,1,1.3.571l1,2.567a.986.986,0,0,1,.065.3.984.984,0,0,1-.7,1.1l-2.679.8a1.006,1.006,0,0,1-1.251-.656.981.981,0,0,1,.668-1.227l.22-.066a10.186,10.186,0,0,0-2-.8A10.347,10.347,0,0,0,12,2.27,10.217,10.217,0,0,0,4.828,5.186a9.82,9.82,0,0,0,0,14.078,10.2,10.2,0,0,0,6.4,2.886,10.807,10.807,0,0,0,2.151-.054ZM10.167,7.436a.928.928,0,0,1,1.855,0v5.539l3.865,1.667a.9.9,0,0,1,.475,1.2.934.934,0,0,1-1.222.466L10.769,14.42a.912.912,0,0,1-.6-.852V7.436Zm6.44,13.687a.9.9,0,0,0,.157,1.685.941.941,0,0,0,.682-.061,11.878,11.878,0,0,0,1.712-1.033.9.9,0,0,0,.371-.815.932.932,0,0,0-1.477-.646A9.988,9.988,0,0,1,16.607,21.123Zm3.785-3.261a.911.911,0,0,0,.811,1.416.928.928,0,0,0,.729-.4,11.755,11.755,0,0,0,.979-1.72.911.911,0,0,0-.811-1.284.929.929,0,0,0-.88.535A9.917,9.917,0,0,1,20.392,17.862Zm1.7-4.667a.9.9,0,0,0,.458.874.931.931,0,0,0,1.389-.7,11.8,11.8,0,0,0,.028-1.967.909.909,0,0,0-.5-.743.927.927,0,0,0-1.355.871,9.966,9.966,0,0,1-.024,1.668ZM21.328,8.3a.935.935,0,0,0,1.241.467.9.9,0,0,0,.464-1.186,11.722,11.722,0,0,0-.941-1.739.934.934,0,0,0-1.69.317.89.89,0,0,0,.13.669A9.871,9.871,0,0,1,21.328,8.3Z" transform="translate(0 0)" fill="#fff"/>
</svg>
